<svg width="512" height="512" viewBox="0 0 512 512" fill="none" xmlns="http://www.w3.org/2000/svg">
<g clip-path="url(#clip0_284:7029)">
<g filter="url(#filter0_d_284:7029)">
<circle cx="261.5" cy="262.5" r="56.5" stroke="white" stroke-width="12"/>
</g>
<circle cx="261.5" cy="262.5" r="56.5" fill="url(#paint0_radial_284:7029)"/>
<g filter="url(#filter1_d_284:7029)">
<path d="M460 261C460 300.867 369.562 333.186 258 333.186C146.438 333.186 56 300.867 56 261C56 221.133 146.438 188.814 258 188.814C369.562 188.814 460 221.133 460 261Z" stroke="white" stroke-width="6"/>
<path d="M432.937 159.763C452.824 194.289 390.624 267.604 294.009 323.515C197.394 379.427 102.95 396.763 83.0629 362.237C63.1758 327.711 125.376 254.396 221.991 198.485C318.606 142.573 413.05 125.237 432.937 159.763Z" stroke="white" stroke-width="6"/>
<path d="M432.937 362.237C413.05 396.763 318.606 379.427 221.991 323.515C125.376 267.604 63.1757 194.289 83.0627 159.763C102.95 125.237 197.393 142.573 294.009 198.485C390.624 254.396 452.824 327.711 432.937 362.237Z" stroke="white" stroke-width="6"/>
</g>
</g>
<defs>
<filter id="filter0_d_284:7029" x="149" y="150" width="225" height="225" filterUnits="userSpaceOnUse" color-interpolation-filters="sRGB">
<feFlood flood-opacity="0" result="BackgroundImageFix"/>
<feColorMatrix in="SourceAlpha" type="matrix" values="0 0 0 0 0 0 0 0 0 0 0 0 0 0 0 0 0 0 127 0" result="hardAlpha"/>
<feOffset/>
<feGaussianBlur stdDeviation="25"/>
<feColorMatrix type="matrix" values="0 0 0 0 0.286275 0 0 0 0 0.0823529 0 0 0 0 0.682353 0 0 0 1 0"/>
<feBlend mode="normal" in2="BackgroundImageFix" result="effect1_dropShadow_284:7029"/>
<feBlend mode="normal" in="SourceGraphic" in2="effect1_dropShadow_284:7029" result="shape"/>
</filter>
<filter id="filter1_d_284:7029" x="3" y="89" width="510" height="344" filterUnits="userSpaceOnUse" color-interpolation-filters="sRGB">
<feFlood flood-opacity="0" result="BackgroundImageFix"/>
<feColorMatrix in="SourceAlpha" type="matrix" values="0 0 0 0 0 0 0 0 0 0 0 0 0 0 0 0 0 0 127 0" result="hardAlpha"/>
<feOffset/>
<feGaussianBlur stdDeviation="25"/>
<feColorMatrix type="matrix" values="0 0 0 0 0.286275 0 0 0 0 0.0823529 0 0 0 0 0.682353 0 0 0 1 0"/>
<feBlend mode="normal" in2="BackgroundImageFix" result="effect1_dropShadow_284:7029"/>
<feBlend mode="normal" in="SourceGraphic" in2="effect1_dropShadow_284:7029" result="shape"/>
</filter>
<radialGradient id="paint0_radial_284:7029" cx="0" cy="0" r="1" gradientUnits="userSpaceOnUse" gradientTransform="translate(261.5 213.62) rotate(90) scale(105.38)">
<stop stop-color="#2305D7"/>
<stop offset="0.453125" stop-color="#4915AE"/>
<stop offset="0.708333" stop-color="#4915AE"/>
<stop offset="1" stop-color="#2305D7"/>
</radialGradient>
<clipPath id="clip0_284:7029">
<rect width="512" height="512" fill="white"/>
</clipPath>
</defs>
</svg>
