<svg width="512" height="512" viewBox="0 0 512 512" fill="none" xmlns="http://www.w3.org/2000/svg">
<g clip-path="url(#clip0_284:7011)">
<g filter="url(#filter0_d_284:7011)">
<path d="M465 228.5C465 260.256 371.428 286 256 286C140.572 286 47 260.256 47 228.5C47 196.744 140.572 171 256 171C371.428 171 465 196.744 465 228.5Z" stroke="white" stroke-width="25"/>
</g>
<g filter="url(#filter1_d_284:7011)">
<path d="M256.5 413L138 148.956M256.5 413L375 148.956M256.5 413L256.5 197.2M138 148.956L256.5 98L375 148.956M138 148.956L256.5 197.2M375 148.956L256.5 197.2" stroke="white" stroke-width="12"/>
</g>
<path d="M256.5 103.443L368.359 151.543L256.5 400.788L144.641 151.543L256.5 103.443Z" fill="url(#paint0_radial_284:7011)" stroke="white" stroke-width="10"/>
<path d="M256.5 413L138 148.956M256.5 413L375 148.956M256.5 413L256.5 197.2M138 148.956L256.5 98L375 148.956M138 148.956L256.5 197.2M375 148.956L256.5 197.2" stroke="white" stroke-width="12"/>
<path d="M465 228C465 260.033 371.428 286 256 286C140.572 286 47 260.033 47 228" stroke="white" stroke-width="25"/>
</g>
<defs>
<filter id="filter0_d_284:7011" x="-15.5" y="108.5" width="543" height="240" filterUnits="userSpaceOnUse" color-interpolation-filters="sRGB">
<feFlood flood-opacity="0" result="BackgroundImageFix"/>
<feColorMatrix in="SourceAlpha" type="matrix" values="0 0 0 0 0 0 0 0 0 0 0 0 0 0 0 0 0 0 127 0" result="hardAlpha"/>
<feOffset/>
<feGaussianBlur stdDeviation="25"/>
<feColorMatrix type="matrix" values="0 0 0 0 0.286275 0 0 0 0 0.0823529 0 0 0 0 0.682353 0 0 0 1 0"/>
<feBlend mode="normal" in2="BackgroundImageFix" result="effect1_dropShadow_284:7011"/>
<feBlend mode="normal" in="SourceGraphic" in2="effect1_dropShadow_284:7011" result="shape"/>
</filter>
<filter id="filter1_d_284:7011" x="80.0303" y="41.4688" width="352.939" height="436.185" filterUnits="userSpaceOnUse" color-interpolation-filters="sRGB">
<feFlood flood-opacity="0" result="BackgroundImageFix"/>
<feColorMatrix in="SourceAlpha" type="matrix" values="0 0 0 0 0 0 0 0 0 0 0 0 0 0 0 0 0 0 127 0" result="hardAlpha"/>
<feOffset/>
<feGaussianBlur stdDeviation="25"/>
<feColorMatrix type="matrix" values="0 0 0 0 0.286275 0 0 0 0 0.0823529 0 0 0 0 0.682353 0 0 0 1 0"/>
<feBlend mode="normal" in2="BackgroundImageFix" result="effect1_dropShadow_284:7011"/>
<feBlend mode="normal" in="SourceGraphic" in2="effect1_dropShadow_284:7011" result="shape"/>
</filter>
<radialGradient id="paint0_radial_284:7011" cx="0" cy="0" r="1" gradientUnits="userSpaceOnUse" gradientTransform="translate(256.5 391.759) rotate(-90) scale(293.759 221.019)">
<stop stop-color="#2305D7"/>
<stop offset="0.453125" stop-color="#4915AE"/>
<stop offset="0.708333" stop-color="#4915AE"/>
<stop offset="1" stop-color="#2305D7"/>
</radialGradient>
<clipPath id="clip0_284:7011">
<rect width="512" height="512" fill="white"/>
</clipPath>
</defs>
</svg>
