<svg width="18" height="34" viewBox="0 0 18 34" fill="none" xmlns="http://www.w3.org/2000/svg">
<path d="M11.2009 1.79985L10.1404 0.739031L8.01876 2.86003L9.07926 3.92085L11.2009 1.79985ZM9.07926 30.0799L8.01876 31.1407L10.1404 33.2617L11.2009 32.2008L9.07926 30.0799ZM4.1409 8.85985L3.0804 7.79903L0.958758 9.92003L2.01926 10.9809L4.1409 8.85985ZM2.01926 22.9999L0.958758 24.0607L3.0804 26.1817L4.1409 25.1209L2.01926 22.9999ZM9.07926 3.92085C12.5475 7.39011 14.4958 12.0948 14.4958 17.0004H17.4958C17.4958 11.2993 15.2315 5.8317 11.2009 1.79985L9.07926 3.92085ZM14.4958 17.0004C14.4958 21.9059 12.5475 26.6106 9.07926 30.0799L11.2009 32.2008C15.2315 28.169 17.4958 22.7014 17.4958 17.0004H14.4958ZM2.01926 10.9809C3.61276 12.5748 4.50794 14.7365 4.50794 16.9904H7.50794C7.50794 13.941 6.29682 11.0164 4.1409 8.85985L2.01926 10.9809ZM4.50794 16.9904C4.50794 19.2442 3.61276 21.4059 2.01926 22.9999L4.1409 25.1209C6.29682 22.9643 7.50794 20.0397 7.50794 16.9904H4.50794Z" fill="white"/>
</svg>
