<svg width="94" height="94" viewBox="0 0 94 94" fill="none" xmlns="http://www.w3.org/2000/svg">
<rect x="2" y="2" width="90" height="90" stroke="white" stroke-width="4"/>
<path d="M70.9539 46.5L72.451 46.4077L69.4546 46.5461L70.9539 46.5ZM67.1421 35.1421V36.6421H68.6421V35.1421H67.1421ZM53 33.6421H51.5V36.6421H53V33.6421ZM68.6421 21V19.5H65.6421V21H68.6421ZM69.5 48C69.5 60.4264 59.4264 70.5 47 70.5V73.5C61.0833 73.5 72.5 62.0833 72.5 48H69.5ZM47 70.5C34.5736 70.5 24.5 60.4264 24.5 48H21.5C21.5 62.0833 32.9167 73.5 47 73.5V70.5ZM24.5 48C24.5 35.5736 34.5736 25.5 47 25.5V22.5C32.9167 22.5 21.5 33.9167 21.5 48H24.5ZM69.4567 46.5923C69.4854 47.0577 69.5 47.527 69.5 48H72.5C72.5 47.4654 72.4835 46.9345 72.451 46.4077L69.4567 46.5923ZM72.4993 47.9539L72.4532 46.4539L69.4546 46.5461L69.5007 48.0461L72.4993 47.9539ZM47 25.5C54.9136 25.5 61.8622 29.7295 65.8819 35.9557L68.4023 34.3285C63.876 27.3177 56.0144 22.5 47 22.5V25.5ZM53 36.6421H67.1421V33.6421H53V36.6421ZM68.6421 35.1421V21H65.6421V35.1421H68.6421Z" fill="white"/>
</svg>
