<svg width="156" height="156" viewBox="0 0 156 156" fill="none" xmlns="http://www.w3.org/2000/svg">
<path d="M139.722 25.9743C136.109 22.3762 131.819 19.522 127.097 17.5747C122.376 15.6273 117.315 14.625 112.203 14.625C107.092 14.625 102.031 15.6273 97.3095 17.5747C92.5877 19.522 88.2976 22.3762 84.6844 25.9743L77.1856 33.438L69.6868 25.9743C62.3883 18.7099 52.4894 14.6288 42.1678 14.6288C31.8462 14.6288 21.9473 18.7099 14.6488 25.9743C7.35026 33.2387 3.25 43.0913 3.25 53.3648C3.25 63.6382 7.35026 73.4909 14.6488 80.7553L22.1475 88.219L77.1856 143L132.224 88.219L139.722 80.7553C143.337 77.1589 146.205 72.8889 148.161 68.1891C150.118 63.4894 151.125 58.452 151.125 53.3648C151.125 48.2776 150.118 43.2402 148.161 38.5404C146.205 33.8407 143.337 29.5706 139.722 25.9743V25.9743Z" stroke="white" stroke-width="4" stroke-linecap="round" stroke-linejoin="round"/>
<rect x="59.7451" y="53.7451" width="35.9681" height="35.5106" stroke="white" stroke-width="2"/>
<path d="M60.5635 83.958L94.5108 83.958" stroke="white" stroke-width="2" stroke-linecap="round" stroke-linejoin="round"/>
<path d="M60.5635 59.0635L94.5108 59.0635" stroke="white" stroke-width="2" stroke-linecap="round" stroke-linejoin="round"/>
<path d="M77.5371 88.4844L77.5371 83.9581" stroke="white" stroke-width="2" stroke-linecap="round" stroke-linejoin="round"/>
<path d="M77.5371 59.0635L77.5371 54.5372" stroke="white" stroke-width="2" stroke-linecap="round" stroke-linejoin="round"/>
<path d="M68.4844 88.4844L68.4844 83.9581" stroke="white" stroke-width="2" stroke-linecap="round" stroke-linejoin="round"/>
<path d="M86.5898 88.4844L86.5898 83.9581" stroke="white" stroke-width="2" stroke-linecap="round" stroke-linejoin="round"/>
<path d="M86.5898 59.0635L86.5898 54.5372" stroke="white" stroke-width="2" stroke-linecap="round" stroke-linejoin="round"/>
<path d="M68.4844 59.0635L68.4844 54.5372" stroke="white" stroke-width="2" stroke-linecap="round" stroke-linejoin="round"/>
<path d="M86.1916 71.2714L72.0107 79.7341L72.0107 62.8086L86.1916 71.2714Z" fill="white"/>
<path d="M65.592 105V100.152H63.696V99.072H65.592V97.968C65.592 97.44 65.764 97.02 66.108 96.708C66.452 96.396 66.92 96.24 67.512 96.24H69.444V97.308H67.512C67.024 97.308 66.78 97.532 66.78 97.98V99.072H69.444V100.152H66.78V105H65.592ZM71.4553 105V98.4H72.6313V99.66H72.6553C72.7113 99.22 72.8913 98.88 73.1953 98.64C73.5073 98.4 73.9153 98.28 74.4193 98.28C75.0993 98.28 75.6433 98.5 76.0513 98.94C76.4593 99.38 76.6633 99.972 76.6633 100.716V101.196H75.4633V100.812C75.4633 100.34 75.3393 99.972 75.0913 99.708C74.8513 99.444 74.4953 99.312 74.0233 99.312C73.1033 99.312 72.6433 99.82 72.6433 100.836V105H71.4553ZM80.9906 105.12C80.4626 105.12 79.9986 105.016 79.5986 104.808C79.2066 104.592 78.9026 104.296 78.6866 103.92C78.4706 103.536 78.3626 103.088 78.3626 102.576V100.812C78.3626 100.308 78.4706 99.868 78.6866 99.492C78.9026 99.108 79.2066 98.812 79.5986 98.604C79.9986 98.388 80.4626 98.28 80.9906 98.28C81.5186 98.28 81.9786 98.388 82.3706 98.604C82.7706 98.812 83.0786 99.108 83.2946 99.492C83.5106 99.868 83.6186 100.308 83.6186 100.812V101.988H79.5266V102.576C79.5266 103.088 79.6506 103.476 79.8986 103.74C80.1546 104.004 80.5186 104.136 80.9906 104.136C81.3906 104.136 81.7106 104.068 81.9506 103.932C82.1906 103.788 82.3426 103.576 82.4066 103.296H83.5826C83.5026 103.856 83.2226 104.3 82.7426 104.628C82.2706 104.956 81.6866 105.12 80.9906 105.12ZM79.5266 100.812V101.136H82.4666V100.812C82.4666 100.308 82.3386 99.924 82.0826 99.66C81.8346 99.388 81.4706 99.252 80.9906 99.252C80.5106 99.252 80.1466 99.388 79.8986 99.66C79.6506 99.924 79.5266 100.308 79.5266 100.812ZM88.1859 105.12C87.6579 105.12 87.1939 105.016 86.7939 104.808C86.4019 104.592 86.0979 104.296 85.8819 103.92C85.6659 103.536 85.5579 103.088 85.5579 102.576V100.812C85.5579 100.308 85.6659 99.868 85.8819 99.492C86.0979 99.108 86.4019 98.812 86.7939 98.604C87.1939 98.388 87.6579 98.28 88.1859 98.28C88.7139 98.28 89.1739 98.388 89.5659 98.604C89.9659 98.812 90.2739 99.108 90.4899 99.492C90.7059 99.868 90.8139 100.308 90.8139 100.812V101.988H86.7219V102.576C86.7219 103.088 86.8459 103.476 87.0939 103.74C87.3499 104.004 87.7139 104.136 88.1859 104.136C88.5859 104.136 88.9059 104.068 89.1459 103.932C89.3859 103.788 89.5379 103.576 89.6019 103.296H90.7779C90.6979 103.856 90.4179 104.3 89.9379 104.628C89.4659 104.956 88.8819 105.12 88.1859 105.12ZM86.7219 100.812V101.136H89.6619V100.812C89.6619 100.308 89.5339 99.924 89.2779 99.66C89.0299 99.388 88.6659 99.252 88.1859 99.252C87.7059 99.252 87.3419 99.388 87.0939 99.66C86.8459 99.924 86.7219 100.308 86.7219 100.812Z" fill="white"/>
</svg>
