<svg width="48" height="48" viewBox="0 0 48 48" fill="none" xmlns="http://www.w3.org/2000/svg">
<path fill-rule="evenodd" clip-rule="evenodd" d="M11.964 4.46031C11.586 4.83813 11.5037 5.10625 11.5037 5.96031V7H8.21399C3.71662 7 4.00368 6.68162 4.00368 11.6697C4.00368 13.7318 4.0978 15.8661 4.21274 16.4127C4.8898 19.6319 7.30555 22.2297 10.4947 23.1679L11.853 23.5675L12.2359 24.6119C13.6114 28.3639 16.8928 31.3103 20.7381 32.2459L22.0037 32.5538V34.027V35.5H19.464C17.0173 35.5 16.9072 35.5169 16.464 35.9603C16.0159 36.4082 16.0037 36.4958 16.0037 39.25C16.0037 42.0042 16.0159 42.0918 16.464 42.5397L16.9241 43H23.5037H30.0832L30.5434 42.5397C30.9915 42.0918 31.0037 42.0042 31.0037 39.25C31.0037 36.4958 30.9915 36.4082 30.5434 35.9603C30.1001 35.5169 29.9901 35.5 27.5434 35.5H25.0037V33.9062C25.0037 32.4516 25.0356 32.3125 25.3689 32.3125C25.5699 32.3125 26.3992 32.1025 27.2119 31.8458C28.7664 31.3548 30.4494 30.3747 31.7385 29.2101C32.8204 28.2327 34.2651 25.9994 34.7413 24.5682C35.1366 23.3809 35.1589 23.3556 35.9235 23.2334C38.2072 22.8681 41.0064 20.6672 42.0656 18.4039C42.8601 16.7061 43.0037 15.6582 43.0037 11.5596C43.0037 6.69981 43.281 7 38.7934 7H35.5037V5.96031C35.5037 5.10625 35.4214 4.83813 35.0434 4.46031L34.5832 4H23.5037H12.4241L11.964 4.46031ZM32.5037 14.2731C32.5037 20.1991 32.4504 21.7504 32.2166 22.6484C31.3742 25.8824 28.8752 28.3733 25.6237 29.2202C20.9687 30.4328 16.0395 27.4424 14.7907 22.6484C14.5569 21.7504 14.5037 20.1991 14.5037 14.2731V7H23.5037H32.5037V14.2731ZM11.5037 15.1562C11.5037 17.9922 11.4587 20.3125 11.4037 20.3125C11.1538 20.3125 9.43893 19.3489 8.93662 18.9263C8.62987 18.6681 8.09043 17.9251 7.73812 17.2752L7.09743 16.0938L7.03443 13.0469L6.97143 10H9.23755H11.5037V15.1562ZM39.9729 13.0469L39.9099 16.0938L39.2692 17.2752C38.9169 17.9251 38.3775 18.6681 38.0707 18.9263C37.5684 19.3489 35.8536 20.3125 35.6036 20.3125C35.5487 20.3125 35.5037 17.9922 35.5037 15.1562V10H37.7698H40.0359L39.9729 13.0469ZM28.0037 39.25V40H23.5037H19.0037V39.25V38.5H23.5037H28.0037V39.25Z" fill="white"/>
</svg>
