<svg width="48" height="48" viewBox="0 0 48 48" fill="none" xmlns="http://www.w3.org/2000/svg">
<path d="M22 10L12 18H4V30H12L22 38V10Z" stroke="white" stroke-width="3" stroke-linecap="round"/>
<path d="M39.2009 8.79985L38.1404 7.73903L36.0188 9.86003L37.0793 10.9209L39.2009 8.79985ZM37.0793 37.0799L36.0188 38.1407L38.1404 40.2617L39.2009 39.2009L37.0793 37.0799ZM32.1409 15.8599L31.0804 14.799L28.9588 16.92L30.0193 17.9809L32.1409 15.8599ZM30.0193 29.9999L28.9588 31.0607L31.0804 33.1817L32.1409 32.1209L30.0193 29.9999ZM37.0793 10.9209C40.5475 14.3901 42.4958 19.0948 42.4958 24.0004H45.4958C45.4958 18.2993 43.2315 12.8317 39.2009 8.79985L37.0793 10.9209ZM42.4958 24.0004C42.4958 28.9059 40.5475 33.6106 37.0793 37.0799L39.2009 39.2009C43.2315 35.169 45.4958 29.7014 45.4958 24.0004H42.4958ZM30.0193 17.9809C31.6128 19.5748 32.5079 21.7365 32.5079 23.9904H35.5079C35.5079 20.941 34.2968 18.0164 32.1409 15.8599L30.0193 17.9809ZM32.5079 23.9904C32.5079 26.2442 31.6128 28.4059 30.0193 29.9999L32.1409 32.1209C34.2968 29.9643 35.5079 27.0397 35.5079 23.9904H32.5079Z" fill="white"/>
</svg>
